<svg xmlns="http://www.w3.org/2000/svg" viewBox="0 0 400 240" fill="none">
  <defs>
    <linearGradient id="bg" x1="0" y1="0" x2="1" y2="1">
      <stop offset="0" stop-color="#0b2b1a" />
      <stop offset="1" stop-color="#1a3f2a" />
    </linearGradient>
    <linearGradient id="gold" x1="0" y1="0" x2="0" y2="1">
      <stop offset="0" stop-color="#e7d08c" />
      <stop offset="1" stop-color="#c8a84b" />
    </linearGradient>
  </defs>

  <rect width="400" height="240" rx="18" fill="url(#bg)" />

  <g opacity="0.18" stroke="url(#gold)" stroke-width="10" stroke-linecap="round">
    <path d="M58 196c52-70 90-70 142 0" />
    <path d="M200 196c52-70 90-70 142 0" />
  </g>

  <g transform="translate(62 56)">
    <path
      d="M70 112h40v8c0 14-12 26-26 26H76c-14 0-26-12-26-26v-8Z"
      fill="rgba(200,168,75,0.18)"
      stroke="url(#gold)"
      stroke-width="4"
      stroke-linejoin="round"
    />
    <path
      d="M110 118h10c11 0 20 9 20 20s-9 20-20 20h-10"
      stroke="url(#gold)"
      stroke-width="4"
      stroke-linecap="round"
    />
    <path d="M78 104c6-10 6-16 0-26" stroke="url(#gold)" stroke-width="4" stroke-linecap="round" />
    <path d="M92 104c6-10 6-16 0-26" stroke="url(#gold)" stroke-width="4" stroke-linecap="round" />
    <path d="M106 104c6-10 6-16 0-26" stroke="url(#gold)" stroke-width="4" stroke-linecap="round" />

    <g transform="translate(170 6)">
      <path
        d="M52 160h38l-10-18h14l-20-34h14L70 78l-18 30h14l-20 34h14l-10 18Z"
        fill="rgba(200,168,75,0.14)"
        stroke="url(#gold)"
        stroke-width="4"
        stroke-linejoin="round"
      />
      <path d="M70 160v-20" stroke="url(#gold)" stroke-width="4" stroke-linecap="round" />
    </g>
  </g>

  <text
    x="40"
    y="44"
    font-family="ui-sans-serif, system-ui, -apple-system, Segoe UI, Roboto, Helvetica, Arial"
    font-size="20"
    font-weight="700"
    fill="#f4e7c2"
    letter-spacing="0.2px"
  >
    Pine &amp; Pour Rewards
  </text>
  <text
    x="40"
    y="72"
    font-family="ui-sans-serif, system-ui, -apple-system, Segoe UI, Roboto, Helvetica, Arial"
    font-size="14"
    fill="rgba(244,231,194,0.86)"
  >
    Earn points every visit.
  </text>
</svg>
